# xmcd
# Track frame offsets:
# 150
# 4971
# 27789
# 46254
# 64155
# 75351
# 92221
# 108823
# 125233
# 141568
# 158713
# 179063
# 195584
# 212159
# 226172
#
# Disc length: 3221 seconds
# Revision: 0
# Processed by: cddbd v1.5.1PL0 Copyright (c) Steve Scherf et al.
# Submitted via: VisiTrax 2.9.10.228 - For more info visit www.synapsa.com
#
DISCID=cc0c930f
DTITLE=Various Artist - CB60319
DYEAR=1900
DGENRE=Karaoke
TTITLE0=Strait, George - Honk If You Honky Tonk
TTITLE1=Urban, Keith - You'll Think Of Me
TTITLE2=Rimes, LeAnn - This Love
TTITLE3=Keith, Toby - America Soldier
TTITLE4=Stuart, Marty - Too Much Month (At The End Of The Month)
TTITLE5=Johnson, Carolyn Dawn - Simple Life
TTITLE6=Rogers, Kenny - Handprints On The Wall
TTITLE7=Brock, Chad - You Are
TTITLE8=Proctor, Rachel - Didn't I
TTITLE9=Walker, Clay - I Can't Sleep
TTITLE10=Allan, Gary - Songs About Rain
TTITLE11=McEntire, Reba - Room To Breathe
TTITLE12=Prather, Colt - Not A Brick Out Place
TTITLE13=Judd, Cledus T. - Chicks Did It, The
TTITLE14=Dean, Roxie - Women Know Women
EXTD=
EXTT0=
EXTT1=
EXTT2=
EXTT3=
EXTT4=
EXTT5=
EXTT6=
EXTT7=
EXTT8=
EXTT9=
EXTT10=
EXTT11=
EXTT12=
EXTT13=
EXTT14=
PLAYORDER=
